<svg xmlns="http://www.w3.org/2000/svg" viewBox="0 0 602.73 305.13"><defs><style>.f6731861-3366-41fb-95df-511a02c2f2fd{fill:#b41700;}.b42fdfe7-abc7-455a-afa9-44cc7f3a6f60{fill:#d5d5d5;}</style></defs><g id="b65b9e5a-9f6c-4b66-a9d0-d4065f47c1eb" data-name="Ebene 2"><g id="a11e3b1d-0375-4838-9d90-ea4f2562f43c" data-name="Ebene 1"><path d="M162.48,145.8h-26.2a12.09,12.09,0,0,1-7.25-2.05,10.66,10.66,0,0,1-4-5.25l-8.6-25.4H61.08l-8.6,25.4a11.58,11.58,0,0,1-11,7.3H15.08L71.48.1h34.6ZM68.88,90.1h39.8L95.28,50.2l-3-9q-1.74-5.14-3.45-11.15-1.59,6.1-3.3,11.3t-3.2,9Z"/><path class="f6731861-3366-41fb-95df-511a02c2f2fd" d="M207.45,123.4h28V49.9q0-5.4.3-11.3l-16.5,13.7a10.58,10.58,0,0,1-3.2,1.85,9.44,9.44,0,0,1-3.1.55,9.32,9.32,0,0,1-4.65-1.15,9.89,9.89,0,0,1-3.05-2.45l-9.8-13L240.85,0h25.6V123.4h24v22.4h-83Z"/><path class="f6731861-3366-41fb-95df-511a02c2f2fd" d="M343.25,123.4h28V49.9q0-5.4.3-11.3l-16.5,13.7a10.7,10.7,0,0,1-3.2,1.85,9.44,9.44,0,0,1-3.1.55,9.27,9.27,0,0,1-4.65-1.15,9.78,9.78,0,0,1-3.05-2.45l-9.8-13L376.65,0h25.6V123.4h24v22.4h-83Z"/><path d="M538.83,90.4v55.4H505V90.4L452.23.1H482a11,11,0,0,1,7,2.05,15.4,15.4,0,0,1,4.2,5.25l20.6,42.4q2.5,5.1,4.6,9.4t3.7,8.5a78.58,78.58,0,0,1,3.6-8.6q2.1-4.31,4.5-9.3l20.4-42.4a12.51,12.51,0,0,1,1.65-2.6,14.44,14.44,0,0,1,2.4-2.35,11.43,11.43,0,0,1,3.1-1.7A11.07,11.07,0,0,1,561.63.1h30Z"/><path d="M23.94,294.84H21.57a2.83,2.83,0,0,1-1.26-.24,1.33,1.33,0,0,1-.63-1l-.6-2.82c-.8.72-1.58,1.36-2.34,1.94a13.34,13.34,0,0,1-2.4,1.43,12.59,12.59,0,0,1-2.68.89,15.45,15.45,0,0,1-3.17.3,10.77,10.77,0,0,1-3.31-.5,7.44,7.44,0,0,1-2.69-1.49,7,7,0,0,1-1.81-2.51,8.79,8.79,0,0,1-.68-3.6,6.7,6.7,0,0,1,1-3.47,8.66,8.66,0,0,1,3.2-3A20.77,20.77,0,0,1,10,278.66a39.4,39.4,0,0,1,8.73-.83v-2.38a8.25,8.25,0,0,0-1.51-5.39,5.5,5.5,0,0,0-4.49-1.83,9.45,9.45,0,0,0-3.28.49,12.43,12.43,0,0,0-2.31,1.11c-.65.42-1.22.79-1.68,1.12a2.5,2.5,0,0,1-1.4.49,1.65,1.65,0,0,1-.94-.28,2.31,2.31,0,0,1-.65-.71l-1-1.71a17.35,17.35,0,0,1,5.43-3.63,16.77,16.77,0,0,1,6.45-1.2,11.51,11.51,0,0,1,4.53.84,9.29,9.29,0,0,1,3.33,2.34,9.91,9.91,0,0,1,2,3.63,15.12,15.12,0,0,1,.69,4.68Zm-13.86-3.27a10.91,10.91,0,0,0,2.58-.28,10.25,10.25,0,0,0,2.21-.82,11.65,11.65,0,0,0,2-1.27,17.12,17.12,0,0,0,1.84-1.71v-6.27a36,36,0,0,0-6.27.47,17.57,17.57,0,0,0-4.2,1.22,5.77,5.77,0,0,0-2.35,1.78A3.84,3.84,0,0,0,5.13,287a5.13,5.13,0,0,0,.39,2.09,3.94,3.94,0,0,0,1.05,1.43,4.14,4.14,0,0,0,1.56.81A7.13,7.13,0,0,0,10.08,291.57Z"/><path class="f6731861-3366-41fb-95df-511a02c2f2fd" d="M76.73,269.85a2.66,2.66,0,0,1-.48.51,1.16,1.16,0,0,1-.69.18,1.72,1.72,0,0,1-1-.37,14,14,0,0,0-1.33-.83,12,12,0,0,0-2-.83,10.5,10.5,0,0,0-6.76.42,7.65,7.65,0,0,0-2.87,2.3,10.39,10.39,0,0,0-1.74,3.63,18,18,0,0,0-.58,4.77,17.46,17.46,0,0,0,.63,4.91,10.4,10.4,0,0,0,1.77,3.59,7.36,7.36,0,0,0,2.77,2.22,8.42,8.42,0,0,0,3.68.77,9.66,9.66,0,0,0,3.21-.46,10.26,10.26,0,0,0,2.1-1,14.9,14.9,0,0,0,1.38-1,1.71,1.71,0,0,1,1.08-.46,1.13,1.13,0,0,1,1,.51l1.5,1.95a11.53,11.53,0,0,1-5,3.55,17.55,17.55,0,0,1-6.27,1.13,13.27,13.27,0,0,1-5.3-1.05,12,12,0,0,1-4.24-3,14.58,14.58,0,0,1-2.84-4.91,19.72,19.72,0,0,1-1-6.63,20,20,0,0,1,.94-6.27,14.32,14.32,0,0,1,2.76-5A12.52,12.52,0,0,1,62,265.14,15.12,15.12,0,0,1,68.15,264a14.44,14.44,0,0,1,5.64,1,13.79,13.79,0,0,1,4.35,2.93Z"/><path class="f6731861-3366-41fb-95df-511a02c2f2fd" d="M128.69,269.85a2.66,2.66,0,0,1-.48.51,1.16,1.16,0,0,1-.69.18,1.72,1.72,0,0,1-1-.37,14,14,0,0,0-1.33-.83,12,12,0,0,0-2-.83,10.5,10.5,0,0,0-6.76.42,7.57,7.57,0,0,0-2.87,2.3,10.39,10.39,0,0,0-1.74,3.63,18,18,0,0,0-.58,4.77,17.46,17.46,0,0,0,.63,4.91,10.22,10.22,0,0,0,1.77,3.59,7.36,7.36,0,0,0,2.77,2.22,8.42,8.42,0,0,0,3.68.77,9.66,9.66,0,0,0,3.21-.46,10.26,10.26,0,0,0,2.1-1,14.9,14.9,0,0,0,1.38-1,1.71,1.71,0,0,1,1.08-.46,1.13,1.13,0,0,1,1,.51l1.5,1.95a11.59,11.59,0,0,1-5,3.55,17.55,17.55,0,0,1-6.27,1.13,13.27,13.27,0,0,1-5.3-1.05,12,12,0,0,1-4.24-3,14.58,14.58,0,0,1-2.84-4.91,19.72,19.72,0,0,1-1-6.63,20,20,0,0,1,.94-6.27,14.32,14.32,0,0,1,2.76-5,12.52,12.52,0,0,1,4.49-3.25A15.1,15.1,0,0,1,120.1,264a14.49,14.49,0,0,1,5.65,1,13.9,13.9,0,0,1,4.35,2.93Z"/><path class="f6731861-3366-41fb-95df-511a02c2f2fd" d="M171.94,264a13.77,13.77,0,0,1,5,.91,11.59,11.59,0,0,1,4,2.64,12,12,0,0,1,2.63,4.27,16.43,16.43,0,0,1,.94,5.77,3.48,3.48,0,0,1-.27,1.68,1.12,1.12,0,0,1-1,.42H163a16.78,16.78,0,0,0,.78,5,10.13,10.13,0,0,0,2,3.55,7.93,7.93,0,0,0,3,2.13,10.11,10.11,0,0,0,3.9.71,11.16,11.16,0,0,0,3.47-.47,15.46,15.46,0,0,0,2.5-1,17.11,17.11,0,0,0,1.76-1,2.39,2.39,0,0,1,1.21-.46,1.18,1.18,0,0,1,1,.51l1.5,1.95a10.16,10.16,0,0,1-2.37,2.09,15.25,15.25,0,0,1-2.95,1.45,18,18,0,0,1-3.26.85,18.89,18.89,0,0,1-3.33.29,15.62,15.62,0,0,1-5.8-1.06,12.74,12.74,0,0,1-4.59-3.12,14.34,14.34,0,0,1-3-5.09,20.68,20.68,0,0,1-1.08-7,17.71,17.71,0,0,1,1-5.94,14.11,14.11,0,0,1,2.8-4.79,13,13,0,0,1,4.47-3.18A14.84,14.84,0,0,1,171.94,264Zm.12,3.93a8.23,8.23,0,0,0-6.09,2.23,10.53,10.53,0,0,0-2.76,6.2h16.53a10.89,10.89,0,0,0-.51-3.41,7.59,7.59,0,0,0-1.5-2.67,6.7,6.7,0,0,0-2.41-1.74A8.35,8.35,0,0,0,172.06,267.9Z"/><path class="f6731861-3366-41fb-95df-511a02c2f2fd" d="M232.75,269.46a1.18,1.18,0,0,1-1.11.66,2.09,2.09,0,0,1-1-.33c-.38-.22-.84-.46-1.39-.74a15.8,15.8,0,0,0-2-.75,9.75,9.75,0,0,0-2.7-.34,8.29,8.29,0,0,0-2.43.34,6,6,0,0,0-1.84.95,4.26,4.26,0,0,0-1.17,1.39,3.77,3.77,0,0,0-.41,1.73,2.88,2.88,0,0,0,.68,1.95,5.84,5.84,0,0,0,1.78,1.35,15.57,15.57,0,0,0,2.52,1c.94.29,1.91.6,2.9.93s1.95.7,2.89,1.1a10.5,10.5,0,0,1,2.52,1.5,6.89,6.89,0,0,1,1.79,2.21,6.7,6.7,0,0,1,.67,3.13,9.87,9.87,0,0,1-.75,3.88,8.4,8.4,0,0,1-2.22,3.09,10.71,10.71,0,0,1-3.6,2.06,14.79,14.79,0,0,1-4.92.75,15.55,15.55,0,0,1-5.76-1,14.81,14.81,0,0,1-4.38-2.66l1.26-2a1.83,1.83,0,0,1,.57-.6,1.6,1.6,0,0,1,.87-.21,2,2,0,0,1,1.14.42c.4.28.89.59,1.46.93a11.2,11.2,0,0,0,2.07.93,9.4,9.4,0,0,0,3,.42,8.63,8.63,0,0,0,2.73-.4,5.91,5.91,0,0,0,1.95-1.1,4.35,4.35,0,0,0,1.16-1.59,4.94,4.94,0,0,0,.37-1.92,3.21,3.21,0,0,0-.67-2.09A5.87,5.87,0,0,0,227,283a14.49,14.49,0,0,0-2.53-1c-1-.29-1.92-.6-2.91-.92s-2-.68-2.91-1.09a10.28,10.28,0,0,1-2.54-1.55,6.9,6.9,0,0,1-1.78-2.3,7.37,7.37,0,0,1-.68-3.31,8,8,0,0,1,.72-3.34,8.24,8.24,0,0,1,2.1-2.83,10.33,10.33,0,0,1,3.39-1.93,13.57,13.57,0,0,1,4.59-.72,14.54,14.54,0,0,1,5.39.95,12.54,12.54,0,0,1,4.12,2.59Z"/><path class="f6731861-3366-41fb-95df-511a02c2f2fd" d="M282.73,269.46a1.18,1.18,0,0,1-1.11.66,2.09,2.09,0,0,1-1-.33c-.38-.22-.84-.46-1.39-.74a15.8,15.8,0,0,0-2-.75,9.75,9.75,0,0,0-2.7-.34,8.29,8.29,0,0,0-2.43.34,6,6,0,0,0-1.84.95,4.26,4.26,0,0,0-1.17,1.39,3.77,3.77,0,0,0-.41,1.73,2.88,2.88,0,0,0,.68,1.95,5.84,5.84,0,0,0,1.78,1.35,15.57,15.57,0,0,0,2.52,1c.94.29,1.91.6,2.9.93s1.95.7,2.89,1.1a10.5,10.5,0,0,1,2.52,1.5,6.89,6.89,0,0,1,1.79,2.21,6.7,6.7,0,0,1,.67,3.13,9.87,9.87,0,0,1-.75,3.88,8.4,8.4,0,0,1-2.22,3.09,10.71,10.71,0,0,1-3.6,2.06,14.79,14.79,0,0,1-4.92.75,15.55,15.55,0,0,1-5.76-1,14.81,14.81,0,0,1-4.38-2.66l1.26-2a1.83,1.83,0,0,1,.57-.6,1.6,1.6,0,0,1,.87-.21,2,2,0,0,1,1.14.42c.4.28.89.59,1.46.93a11.2,11.2,0,0,0,2.07.93,9.4,9.4,0,0,0,3,.42,8.63,8.63,0,0,0,2.73-.4,5.91,5.91,0,0,0,1.95-1.1,4.35,4.35,0,0,0,1.16-1.59,4.94,4.94,0,0,0,.37-1.92,3.21,3.21,0,0,0-.67-2.09A5.87,5.87,0,0,0,277,283a14.49,14.49,0,0,0-2.53-1c-.95-.29-1.92-.6-2.91-.92s-2-.68-2.91-1.09a10.28,10.28,0,0,1-2.54-1.55,6.9,6.9,0,0,1-1.78-2.3,7.37,7.37,0,0,1-.68-3.31,8,8,0,0,1,.72-3.34,8.24,8.24,0,0,1,2.1-2.83,10.33,10.33,0,0,1,3.39-1.93,13.57,13.57,0,0,1,4.59-.72,14.54,14.54,0,0,1,5.39.95,12.54,12.54,0,0,1,4.12,2.59Z"/><path class="f6731861-3366-41fb-95df-511a02c2f2fd" d="M322.45,254.91a3.42,3.42,0,0,1-.31,1.46,4.28,4.28,0,0,1-.84,1.19,3.77,3.77,0,0,1-1.22.83,3.65,3.65,0,0,1-1.47.3,3.52,3.52,0,0,1-1.45-.3,3.8,3.8,0,0,1-1.2-.83,4.05,4.05,0,0,1-.83-1.19,3.57,3.57,0,0,1-.3-1.46,3.78,3.78,0,0,1,.3-1.49,4,4,0,0,1,2-2,3.52,3.52,0,0,1,1.45-.3,3.65,3.65,0,0,1,1.47.3,3.77,3.77,0,0,1,1.22.83,4,4,0,0,1,.84,1.22A3.62,3.62,0,0,1,322.45,254.91Zm-1.2,9.54v30.39h-5.34V264.45Z"/><path class="f6731861-3366-41fb-95df-511a02c2f2fd" d="M354.85,294.84V250.65h5.37v18.18a15.74,15.74,0,0,1,4.34-3.53,11.57,11.57,0,0,1,5.59-1.33,11.18,11.18,0,0,1,4.77,1,9.65,9.65,0,0,1,3.63,3,14.11,14.11,0,0,1,2.31,4.85,24.94,24.94,0,0,1,.81,6.68,21,21,0,0,1-.9,6.26,15.11,15.11,0,0,1-2.59,5,12,12,0,0,1-9.65,4.55,10.14,10.14,0,0,1-5-1.14,11.38,11.38,0,0,1-3.59-3.18l-.27,2.76a1.28,1.28,0,0,1-1.38,1.14Zm13.56-26.61a8.58,8.58,0,0,0-4.57,1.2,13.2,13.2,0,0,0-3.62,3.39v14.7a8.38,8.38,0,0,0,3.2,2.79,9.21,9.21,0,0,0,3.91.81,7.69,7.69,0,0,0,6.54-3q2.28-3,2.28-8.64a21.58,21.58,0,0,0-.52-5.1,10.09,10.09,0,0,0-1.52-3.5,6,6,0,0,0-2.43-2A8.08,8.08,0,0,0,368.41,268.23Z"/><path class="f6731861-3366-41fb-95df-511a02c2f2fd" d="M419.29,254.91a3.42,3.42,0,0,1-.31,1.46,4.28,4.28,0,0,1-.84,1.19,3.77,3.77,0,0,1-1.22.83,3.65,3.65,0,0,1-1.47.3,3.52,3.52,0,0,1-1.45-.3,3.8,3.8,0,0,1-1.2-.83,4.05,4.05,0,0,1-.83-1.19,3.57,3.57,0,0,1-.3-1.46,3.78,3.78,0,0,1,.3-1.49,4,4,0,0,1,2-2,3.52,3.52,0,0,1,1.45-.3,3.65,3.65,0,0,1,1.47.3,3.77,3.77,0,0,1,1.22.83,4,4,0,0,1,.84,1.22A3.62,3.62,0,0,1,419.29,254.91Zm-1.2,9.54v30.39h-5.34V264.45Z"/><path class="f6731861-3366-41fb-95df-511a02c2f2fd" d="M457.45,250.65v44.19h-5.34V250.65Z"/><path class="f6731861-3366-41fb-95df-511a02c2f2fd" d="M498,254.91a3.42,3.42,0,0,1-.31,1.46,4.28,4.28,0,0,1-.84,1.19,3.77,3.77,0,0,1-1.22.83,3.65,3.65,0,0,1-1.47.3,3.52,3.52,0,0,1-1.45-.3,3.8,3.8,0,0,1-1.2-.83,4.05,4.05,0,0,1-.83-1.19,3.57,3.57,0,0,1-.3-1.46,3.78,3.78,0,0,1,.3-1.49,4,4,0,0,1,2-2,3.52,3.52,0,0,1,1.45-.3,3.65,3.65,0,0,1,1.47.3,3.77,3.77,0,0,1,1.22.83,4,4,0,0,1,.84,1.22A3.62,3.62,0,0,1,498,254.91Zm-1.2,9.54v30.39h-5.34V264.45Z"/><path class="f6731861-3366-41fb-95df-511a02c2f2fd" d="M539.44,295.32a7.31,7.31,0,0,1-5.53-2,8,8,0,0,1-1.94-5.79v-18.6h-3.66a1.15,1.15,0,0,1-.81-.29,1.08,1.08,0,0,1-.33-.88v-2.13l5-.63,1.23-9.39a1.1,1.1,0,0,1,.39-.73,1.19,1.19,0,0,1,.84-.29h2.7v10.47H546v3.87h-8.7v18.24a3.88,3.88,0,0,0,.93,2.85,3.25,3.25,0,0,0,2.4.93,4,4,0,0,0,1.46-.23,6.19,6.19,0,0,0,1.06-.49,8.68,8.68,0,0,0,.77-.5,1.06,1.06,0,0,1,.55-.22.92.92,0,0,1,.75.51l1.56,2.55a9.94,9.94,0,0,1-3.33,2A11.31,11.31,0,0,1,539.44,295.32Z"/><path d="M585.78,303.81a2.79,2.79,0,0,1-.67,1,1.86,1.86,0,0,1-1.25.36h-4l5.55-12.06-12.54-28.62h4.62a1.62,1.62,0,0,1,1.08.34,2.27,2.27,0,0,1,.57.77l8.13,19.14c.18.44.33.88.47,1.32s.24.89.34,1.35l.42-1.35q.21-.66.48-1.35l7.89-19.11a1.73,1.73,0,0,1,.62-.8,1.54,1.54,0,0,1,.94-.31h4.26Z"/><polygon class="b42fdfe7-abc7-455a-afa9-44cc7f3a6f60" points="560.38 193.4 560.38 192.6 465.03 192.6 465.03 141.4 461.03 141.4 461.03 192.6 188.69 192.6 188.69 141.4 184.69 141.4 184.69 192.6 39.74 192.6 39.74 193.4 39.73 193.4 39.73 247.42 43.73 247.42 43.73 196.6 556.41 196.6 556.41 247.42 560.41 247.42 560.41 193.4 560.38 193.4"/></g></g></svg>